<svg id="Capa_1" enable-background="new 0 0 511.999 511.999" height="512" viewBox="0 0 511.999 511.999" width="512" xmlns="http://www.w3.org/2000/svg"><g><path d="m202.158 251.605h-6.962c.508-.465 1.016-.93 1.51-1.415 11.023-10.841 17.094-25.325 17.094-40.785v-27.533c4.929-2.673 8.283-7.894 8.283-13.884v-24.85c0-22.405-18.228-40.633-40.633-40.633h-49.7c-22.405 0-40.633 18.228-40.633 40.633v24.85c0 5.99 3.355 11.211 8.284 13.884v26.715c0 16.977 7.349 32.36 18.978 43.018h-7.337c-24.689 0-44.775 20.086-44.775 44.775v12.425c0 13.27 10.796 24.066 24.066 24.066h132.533c13.27 0 24.067-10.796 24.067-24.066v-12.425c0-24.689-20.086-44.775-44.775-44.775zm-75.748 39.265c-.087.13-.267.401-.749.343-.48-.06-.589-.369-.642-.517l-8.515-24.09h26.082zm30.19-18.244 11.913 17.87-11.913 8.935-11.913-8.935zm14.013-6.021h26.082l-8.516 24.09c-.052.148-.161.457-.642.517-.483.053-.662-.213-.749-.343zm-64.497-123.466c0-14.134 11.499-25.633 25.633-25.633h49.7c14.134 0 25.633 11.499 25.633 25.633v24.85c0 .432-.352.783-.783.783-12.145 0-22.71-8.621-25.121-20.498-1.485-7.321-7.986-12.635-15.458-12.635h-18.243c-7.471 0-13.972 5.314-15.457 12.634-2.411 11.878-12.976 20.499-25.121 20.499-.432 0-.784-.352-.784-.783v-24.85zm8.284 65.449v-25.524c15.962-3.016 29.004-15.465 32.321-31.807.073-.358.391-.618.757-.618h18.243c.366 0 .685.259.757.618 3.317 16.342 16.359 28.791 32.321 31.807v26.342c0 11.405-4.479 22.091-12.612 30.09-8.131 7.997-18.886 12.284-30.313 12.104-22.868-.382-41.474-19.677-41.474-43.012zm117.533 100.218c0 4.999-4.067 9.066-9.067 9.066h-132.533c-4.999 0-9.066-4.067-9.066-9.066v-12.425c0-12.966 8.333-24.016 19.923-28.093l9.687 27.407c2.005 5.671 6.959 9.657 12.928 10.402.666.083 1.33.124 1.99.124 3.703 0 7.23-1.297 10.028-3.623l16.277 12.208c1.333 1 2.917 1.5 4.5 1.5s3.167-.5 4.5-1.5l16.277-12.208c2.798 2.327 6.324 3.623 10.028 3.623.659 0 1.324-.04 1.99-.124 5.969-.745 10.923-4.73 12.928-10.402l9.688-27.407c11.59 4.077 19.923 15.127 19.923 28.093v12.425z"/><path d="m140.033 204.481c4.142 0 7.5-3.358 7.5-7.5v-4.142c0-4.142-3.358-7.5-7.5-7.5s-7.5 3.358-7.5 7.5v4.142c0 4.142 3.358 7.5 7.5 7.5z"/><path d="m173.167 204.481c4.142 0 7.5-3.358 7.5-7.5v-4.142c0-4.142-3.358-7.5-7.5-7.5s-7.5 3.358-7.5 7.5v4.142c0 4.142 3.358 7.5 7.5 7.5z"/><path d="m511.998 73.765c0-22.405-18.228-40.632-40.633-40.632h-26.337c-3.529-18.833-20.083-33.133-39.925-33.133h-132.54c-19.841 0-36.395 14.3-39.925 33.132h-192.004c-22.405 0-40.632 18.228-40.632 40.632v84.402c0 4.142 3.358 7.5 7.5 7.5s7.5-3.358 7.5-7.5v-84.401c0-14.134 11.499-25.632 25.632-25.632h191.3v18.134h-183.018c-8.703 0-15.783 7.081-15.783 15.784v265.847h-18.132v-159.731c0-4.142-3.358-7.5-7.5-7.5s-7.5 3.358-7.5 7.5v183.801c0 22.405 18.228 40.633 40.632 40.633h34.699c4.142 0 7.5-3.358 7.5-7.5s-3.358-7.5-7.5-7.5h-34.698c-14.134 0-25.632-11.499-25.632-25.633v-9.07h481.997v9.07c0 14.134-11.499 25.633-25.633 25.633h-366.033c-4.142 0-7.5 3.358-7.5 7.5s3.358 7.5 7.5 7.5h85.184v51.267h-42.483c-8.547 0-15.5 6.953-15.5 15.5v17.132c0 8.547 6.953 15.5 15.5 15.5h215.933c8.547 0 15.5-6.953 15.5-15.5v-17.132c0-8.547-6.953-15.5-15.5-15.5h-42.483v-51.268h149.882c22.405 0 40.633-18.228 40.633-40.633v-298.202zm-147.531 405.602v17.132c0 .276-.225.5-.5.5h-215.933c-.276 0-.5-.224-.5-.5v-17.132c0-.276.224-.5.5-.5h215.933c.275 0 .5.224.5.5zm-57.984-15.5h-100.966v-51.267h100.966zm-59.55-423.237c0-14.132 11.497-25.63 25.63-25.63h132.54c14.133 0 25.63 11.497 25.63 25.63v99.403c0 14.134-11.499 25.633-25.634 25.633h-79.402c-4.217 0-8.18 1.642-11.16 4.623l-33.134 33.133c-.138.138-.366.369-.854.17-.483-.201-.483-.528-.483-.724v-21.418c0-8.703-7.08-15.783-15.783-15.783-9.566 0-17.35-7.783-17.35-17.35zm-198.8 41.42c0-.432.352-.784.783-.784h183.018v67.05c0 17.838 14.512 32.35 32.35 32.35.432 0 .783.352.783.783v21.419c0 6.406 3.824 12.13 9.744 14.582 1.964.813 4.02 1.209 6.056 1.209 4.1 0 8.117-1.604 11.145-4.631l33.134-33.134c.146-.145.347-.228.553-.228h79.402c22.405 0 40.634-18.228 40.634-40.633v-58.766h17.351c.432 0 .783.352.783.784v265.847h-415.736zm430.734 265.847v-265.847c0-8.703-7.08-15.784-15.783-15.784h-17.351v-18.134h25.632c14.134 0 25.633 11.498 25.633 25.632v274.133z"/><path d="m438.233 298.199h-109.67c-3.16-9.608-12.212-16.566-22.863-16.566s-19.704 6.959-22.864 16.566h-10.269c-4.143 0-7.5 3.358-7.5 7.5s3.357 7.5 7.5 7.5h10.269c3.16 9.608 12.212 16.567 22.864 16.567s19.704-6.959 22.863-16.567h109.67c4.143 0 7.5-3.358 7.5-7.5s-3.357-7.5-7.5-7.5zm-132.533 16.567c-5 0-9.067-4.067-9.067-9.067 0-4.999 4.067-9.066 9.067-9.066 4.999 0 9.066 4.067 9.066 9.066 0 5-4.067 9.067-9.066 9.067z"/><path d="m272.566 49.269h132.533c4.143 0 7.5-3.358 7.5-7.5s-3.357-7.5-7.5-7.5h-132.533c-4.143 0-7.5 3.358-7.5 7.5s3.358 7.5 7.5 7.5z"/><path d="m272.566 82.402h132.533c4.143 0 7.5-3.358 7.5-7.5s-3.357-7.5-7.5-7.5h-132.533c-4.143 0-7.5 3.358-7.5 7.5s3.358 7.5 7.5 7.5z"/><path d="m272.566 115.536h132.533c4.143 0 7.5-3.358 7.5-7.5s-3.357-7.5-7.5-7.5h-132.533c-4.143 0-7.5 3.358-7.5 7.5s3.358 7.5 7.5 7.5z"/><path d="m272.566 148.669h49.7c4.143 0 7.5-3.358 7.5-7.5s-3.357-7.5-7.5-7.5h-49.7c-4.143 0-7.5 3.358-7.5 7.5s3.358 7.5 7.5 7.5z"/></g></svg>